<svg version="1.1" xmlns="http://www.w3.org/2000/svg" viewBox="0 0 816.1309523809521 536.2857142857141" width="1632.2619047619041" height="1072.5714285714282">
  <!-- svg-source:excalidraw -->
  
  <defs>
    <style class="style-fonts">
      @font-face {
        font-family: "Virgil";
        src: url("https://excalidraw.com/Virgil.woff2");
      }
      @font-face {
        font-family: "Cascadia";
        src: url("https://excalidraw.com/Cascadia.woff2");
      }
    </style>
  </defs>
  <rect x="0" y="0" width="816.1309523809521" height="536.2857142857141" fill="#ffffff"></rect><g stroke-linecap="round" transform="translate(10 362.92857142857133) rotate(0 104.5 80.5)"><path d="M32 0 M32 0 C73.54 0, 115.08 0, 177 0 M32 0 C87.42 0, 142.84 0, 177 0 M177 0 C198.33 0, 209 10.67, 209 32 M177 0 C198.33 0, 209 10.67, 209 32 M209 32 C209 53.44, 209 74.89, 209 129 M209 32 C209 57.28, 209 82.55, 209 129 M209 129 C209 150.33, 198.33 161, 177 161 M209 129 C209 150.33, 198.33 161, 177 161 M177 161 C144.86 161, 112.73 161, 32 161 M177 161 C146.97 161, 116.93 161, 32 161 M32 161 C10.67 161, 0 150.33, 0 129 M32 161 C10.67 161, 0 150.33, 0 129 M0 129 C0 98.8, 0 68.59, 0 32 M0 129 C0 107.79, 0 86.59, 0 32 M0 32 C0 10.67, 10.67 0, 32 0 M0 32 C0 10.67, 10.67 0, 32 0" stroke="#000000" stroke-width="4" fill="none"></path></g><g transform="translate(29.21666717529297 431.42857142857133) rotate(0 85.28333282470703 12)"><text x="85.28333282470703" y="0" font-family="Virgil, Segoe UI Emoji" font-size="20px" fill="#000000" text-anchor="middle" style="white-space: pre;" direction="ltr" dominant-baseline="text-before-edge">Database Server</text></g><g stroke-linecap="round" transform="translate(294.7023809523812 360.5714285714285) rotate(0 107.85714285714289 82.85714285714282)"><path d="M32 0 M32 0 C79.24 0, 126.48 0, 183.71 0 M32 0 C65.17 0, 98.33 0, 183.71 0 M183.71 0 C205.05 0, 215.71 10.67, 215.71 32 M183.71 0 C205.05 0, 215.71 10.67, 215.71 32 M215.71 32 C215.71 61.38, 215.71 90.76, 215.71 133.71 M215.71 32 C215.71 66.26, 215.71 100.52, 215.71 133.71 M215.71 133.71 C215.71 155.05, 205.05 165.71, 183.71 165.71 M215.71 133.71 C215.71 155.05, 205.05 165.71, 183.71 165.71 M183.71 165.71 C134.45 165.71, 85.2 165.71, 32 165.71 M183.71 165.71 C137.95 165.71, 92.18 165.71, 32 165.71 M32 165.71 C10.67 165.71, 0 155.05, 0 133.71 M32 165.71 C10.67 165.71, 0 155.05, 0 133.71 M0 133.71 C0 107.41, 0 81.1, 0 32 M0 133.71 C0 102.76, 0 71.81, 0 32 M0 32 C0 10.67, 10.67 0, 32 0 M0 32 C0 10.67, 10.67 0, 32 0" stroke="#000000" stroke-width="4" fill="none"></path></g><g transform="translate(356.39285587129166 431.42857142857133) rotate(0 46.16666793823242 12)"><text x="46.16666793823242" y="0" font-family="Virgil, Segoe UI Emoji" font-size="20px" fill="#000000" text-anchor="middle" style="white-space: pre;" direction="ltr" dominant-baseline="text-before-edge">RabbitMQ</text></g><g stroke-linecap="round" transform="translate(588.988095238095 363.42857142857133) rotate(0 108.57142857142856 79.99999999999996)"><path d="M32 0 M32 0 C87.94 0, 143.88 0, 185.14 0 M32 0 C80.43 0, 128.86 0, 185.14 0 M185.14 0 C206.48 0, 217.14 10.67, 217.14 32 M185.14 0 C206.48 0, 217.14 10.67, 217.14 32 M217.14 32 C217.14 63.85, 217.14 95.7, 217.14 128 M217.14 32 C217.14 52.28, 217.14 72.56, 217.14 128 M217.14 128 C217.14 149.33, 206.48 160, 185.14 160 M217.14 128 C217.14 149.33, 206.48 160, 185.14 160 M185.14 160 C124.7 160, 64.26 160, 32 160 M185.14 160 C150.04 160, 114.94 160, 32 160 M32 160 C10.67 160, 0 149.33, 0 128 M32 160 C10.67 160, 0 149.33, 0 128 M0 128 C0 103.28, 0 78.56, 0 32 M0 128 C0 103.19, 0 78.37, 0 32 M0 32 C0 10.67, 10.67 0, 32 0 M0 32 C0 10.67, 10.67 0, 32 0" stroke="#000000" stroke-width="4" fill="none"></path></g><g transform="translate(618.0928566342304 431.42857142857133) rotate(0 79.46666717529297 12)"><text x="79.46666717529297" y="0" font-family="Virgil, Segoe UI Emoji" font-size="20px" fill="#000000" text-anchor="middle" style="white-space: pre;" direction="ltr" dominant-baseline="text-before-edge">Long Poll Server</text></g><g stroke-linecap="round" transform="translate(343.27380952380986 81.4285714285713) rotate(0 40 53.571428571428555)"><path d="M20 0 L64.69 0.31 L72.19 2.81 L77.19 7.81 L78.75 11.25 L80 20 L80 87.14 L78.75 95.89 L77.19 99.33 L72.19 104.33 L68.75 105.89 L60 107.14 L15.31 106.83 L7.81 104.33 L2.81 99.33 L1.25 95.89 L0 87.14 L0.31 15.31 L2.81 7.81 L7.81 2.81 L11.25 1.25 L20 0" stroke="none" stroke-width="0" fill="#fff"></path><path d="M20 0 M20 0 C28.55 0, 37.11 0, 60 0 M20 0 C31.72 0, 43.43 0, 60 0 M60 0 C73.33 0, 80 6.67, 80 20 M60 0 C73.33 0, 80 6.67, 80 20 M80 20 C80 34.79, 80 49.59, 80 87.14 M80 20 C80 45.81, 80 71.63, 80 87.14 M80 87.14 C80 100.48, 73.33 107.14, 60 107.14 M80 87.14 C80 100.48, 73.33 107.14, 60 107.14 M60 107.14 C47.04 107.14, 34.08 107.14, 20 107.14 M60 107.14 C51.38 107.14, 42.76 107.14, 20 107.14 M20 107.14 C6.67 107.14, 0 100.48, 0 87.14 M20 107.14 C6.67 107.14, 0 100.48, 0 87.14 M0 87.14 C0 68.23, 0 49.32, 0 20 M0 87.14 C0 64.46, 0 41.77, 0 20 M0 20 C0 6.67, 6.67 0, 20 0 M0 20 C0 6.67, 6.67 0, 20 0" stroke="#000000" stroke-width="4" fill="none"></path></g><g stroke-linecap="round" transform="translate(357.55952380952385 66.42857142857147) rotate(0 40 53.571428571428555)"><path d="M20 0 M20 0 C31.2 0, 42.39 0, 60 0 M20 0 C28.71 0, 37.42 0, 60 0 M60 0 C73.33 0, 80 6.67, 80 20 M60 0 C73.33 0, 80 6.67, 80 20 M80 20 C80 36.67, 80 53.34, 80 87.14 M80 20 C80 45.61, 80 71.22, 80 87.14 M80 87.14 C80 100.48, 73.33 107.14, 60 107.14 M80 87.14 C80 100.48, 73.33 107.14, 60 107.14 M60 107.14 C46.81 107.14, 33.61 107.14, 20 107.14 M60 107.14 C48.38 107.14, 36.77 107.14, 20 107.14 M20 107.14 C6.67 107.14, 0 100.48, 0 87.14 M20 107.14 C6.67 107.14, 0 100.48, 0 87.14 M0 87.14 C0 71.75, 0 56.36, 0 20 M0 87.14 C0 71.47, 0 55.79, 0 20 M0 20 C0 6.67, 6.67 0, 20 0 M0 20 C0 6.67, 6.67 0, 20 0" stroke="#000000" stroke-width="4" fill="none"></path></g><g stroke-linecap="round" transform="translate(371.8452380952383 55.00000000000003) rotate(0 40 53.571428571428555)"><path d="M20 0 M20 0 C32.49 0, 44.98 0, 60 0 M20 0 C35.61 0, 51.22 0, 60 0 M60 0 C73.33 0, 80 6.67, 80 20 M60 0 C73.33 0, 80 6.67, 80 20 M80 20 C80 33.9, 80 47.8, 80 87.14 M80 20 C80 45.98, 80 71.96, 80 87.14 M80 87.14 C80 100.48, 73.33 107.14, 60 107.14 M80 87.14 C80 100.48, 73.33 107.14, 60 107.14 M60 107.14 C47.64 107.14, 35.29 107.14, 20 107.14 M60 107.14 C49.65 107.14, 39.3 107.14, 20 107.14 M20 107.14 C6.67 107.14, 0 100.48, 0 87.14 M20 107.14 C6.67 107.14, 0 100.48, 0 87.14 M0 87.14 C0 65.8, 0 44.45, 0 20 M0 87.14 C0 65.18, 0 43.22, 0 20 M0 20 C0 6.67, 6.67 0, 20 0 M0 20 C0 6.67, 6.67 0, 20 0" stroke="#000000" stroke-width="4" fill="none"></path></g><g transform="translate(371.8452380952381 10) rotate(0 32.46666717529297 12)"><text x="0" y="0" font-family="Virgil, Segoe UI Emoji" font-size="20px" fill="#000000" text-anchor="start" style="white-space: pre;" direction="ltr" dominant-baseline="text-before-edge">Clients</text></g><g stroke-linecap="round"><g transform="translate(329.7080842188161 199.05229914451814) rotate(0 -112.73064962632736 74.71789804678849)"><path d="M0 0 C-37.58 24.91, -187.88 124.53, -225.46 149.44 M0 0 C-37.58 24.91, -187.88 124.53, -225.46 149.44" stroke="#000000" stroke-width="4" fill="none"></path></g><g transform="translate(329.7080842188161 199.05229914451814) rotate(0 -112.73064962632736 74.71789804678849)"><path d="M-207.63 125.31 C-213.38 133.08, -219.12 140.86, -225.46 149.44 M-207.63 125.31 C-212.53 131.94, -217.43 138.57, -225.46 149.44" stroke="#000000" stroke-width="4" fill="none"></path></g><g transform="translate(329.7080842188161 199.05229914451814) rotate(0 -112.73064962632736 74.71789804678849)"><path d="M-196.29 142.41 C-205.69 144.68, -215.09 146.94, -225.46 149.44 M-196.29 142.41 C-204.31 144.34, -212.32 146.27, -225.46 149.44" stroke="#000000" stroke-width="4" fill="none"></path></g></g><mask></mask><g stroke-linecap="round"><g transform="translate(696.1511594661042 345.7142857142858) rotate(0 -120.01010354257585 -72.14285714285717)"><path d="M0 0 C-40 -24.05, -200.02 -120.24, -240.02 -144.29 M0 0 C-40 -24.05, -200.02 -120.24, -240.02 -144.29" stroke="#000000" stroke-width="4" fill="none"></path></g><g transform="translate(696.1511594661042 345.7142857142858) rotate(0 -120.01010354257585 -72.14285714285717)"><path d="M-210.57 -138.56 C-217.63 -139.93, -224.7 -141.3, -240.02 -144.29 M-210.57 -138.56 C-219.51 -140.29, -228.45 -142.03, -240.02 -144.29" stroke="#000000" stroke-width="4" fill="none"></path></g><g transform="translate(696.1511594661042 345.7142857142858) rotate(0 -120.01010354257585 -72.14285714285717)"><path d="M-221.15 -120.97 C-225.67 -126.56, -230.2 -132.15, -240.02 -144.29 M-221.15 -120.97 C-226.88 -128.05, -232.61 -135.12, -240.02 -144.29" stroke="#000000" stroke-width="4" fill="none"></path></g></g><mask></mask><g stroke-linecap="round"><g transform="translate(228.9880952380954 443.7831398709668) rotate(0 27.857142857143003 0.017921975271093515)"><path d="M0 0 C9.29 0.01, 46.43 0.03, 55.71 0.04 M0 0 C9.29 0.01, 46.43 0.03, 55.71 0.04" stroke="#000000" stroke-width="4" fill="none"></path></g><g transform="translate(228.9880952380954 443.7831398709668) rotate(0 27.857142857143003 0.017921975271093515)"><path d="M29.53 9.55 C38.71 6.21, 47.89 2.88, 55.71 0.04 M29.53 9.55 C38.36 6.34, 47.18 3.13, 55.71 0.04" stroke="#000000" stroke-width="4" fill="none"></path></g><g transform="translate(228.9880952380954 443.7831398709668) rotate(0 27.857142857143003 0.017921975271093515)"><path d="M29.54 -9.51 C38.72 -6.16, 47.89 -2.82, 55.71 0.04 M29.54 -9.51 C38.37 -6.29, 47.19 -3.07, 55.71 0.04" stroke="#000000" stroke-width="4" fill="none"></path></g></g><mask></mask><g stroke-linecap="round"><g transform="translate(152.77869558072325 348.48809523809507) rotate(0 95.96184268582886 -64.95833333333329)"><path d="M0 0 C31.99 -21.65, 159.94 -108.26, 191.92 -129.92 M0 0 C31.99 -21.65, 159.94 -108.26, 191.92 -129.92" stroke="#000000" stroke-width="4" fill="none"></path></g><g transform="translate(152.77869558072325 348.48809523809507) rotate(0 95.96184268582886 -64.95833333333329)"><path d="M174.33 -105.62 C178.07 -110.79, 181.82 -115.96, 191.92 -129.92 M174.33 -105.62 C179.05 -112.13, 183.76 -118.64, 191.92 -129.92" stroke="#000000" stroke-width="4" fill="none"></path></g><g transform="translate(152.77869558072325 348.48809523809507) rotate(0 95.96184268582886 -64.95833333333329)"><path d="M162.83 -122.61 C169.02 -124.17, 175.21 -125.72, 191.92 -129.92 M162.83 -122.61 C170.63 -124.57, 178.43 -126.53, 191.92 -129.92" stroke="#000000" stroke-width="4" fill="none"></path></g></g><mask></mask><g stroke-linecap="round"><g transform="translate(521.1555213079605 444.45032775518064) rotate(0 27.783257393013287 0.42865737770441115)"><path d="M0 0 C9.26 0.14, 46.31 0.71, 55.57 0.86 M0 0 C9.26 0.14, 46.31 0.71, 55.57 0.86" stroke="#000000" stroke-width="4" fill="none"></path></g><g transform="translate(521.1555213079605 444.45032775518064) rotate(0 27.783257393013287 0.42865737770441115)"><path d="M29.31 9.96 C34.95 8, 40.58 6.05, 55.57 0.86 M29.31 9.96 C34.95 8, 40.58 6.05, 55.57 0.86" stroke="#000000" stroke-width="4" fill="none"></path></g><g transform="translate(521.1555213079605 444.45032775518064) rotate(0 27.783257393013287 0.42865737770441115)"><path d="M29.61 -9.05 C35.18 -6.92, 40.75 -4.8, 55.57 0.86 M29.61 -9.05 C35.18 -6.92, 40.75 -4.8, 55.57 0.86" stroke="#000000" stroke-width="4" fill="none"></path></g></g><mask></mask></svg>