<svg version="1.1" xmlns="http://www.w3.org/2000/svg" viewBox="0 0 816.1309523809521 534.2857142857141" width="1632.2619047619041" height="1068.5714285714282">
  <!-- svg-source:excalidraw -->
  
  <defs>
    <style class="style-fonts">
      @font-face {
        font-family: "Virgil";
        src: url("https://excalidraw.com/Virgil.woff2");
      }
      @font-face {
        font-family: "Cascadia";
        src: url("https://excalidraw.com/Cascadia.woff2");
      }
    </style>
  </defs>
  <rect x="0" y="0" width="816.1309523809521" height="534.2857142857141" fill="#ffffff"></rect><g stroke-linecap="round" transform="translate(10 361.58333333333337) rotate(0 104.5 80.5)"><path d="M32 0 M32 0 C73.54 0, 115.08 0, 177 0 M32 0 C87.42 0, 142.84 0, 177 0 M177 0 C198.33 0, 209 10.67, 209 32 M177 0 C198.33 0, 209 10.67, 209 32 M209 32 C209 53.44, 209 74.89, 209 129 M209 32 C209 57.28, 209 82.55, 209 129 M209 129 C209 150.33, 198.33 161, 177 161 M209 129 C209 150.33, 198.33 161, 177 161 M177 161 C144.86 161, 112.73 161, 32 161 M177 161 C146.97 161, 116.93 161, 32 161 M32 161 C10.67 161, 0 150.33, 0 129 M32 161 C10.67 161, 0 150.33, 0 129 M0 129 C0 98.8, 0 68.59, 0 32 M0 129 C0 107.79, 0 86.59, 0 32 M0 32 C0 10.67, 10.67 0, 32 0 M0 32 C0 10.67, 10.67 0, 32 0" stroke="#000000" stroke-width="4" fill="none"></path></g><g transform="translate(30.42857142857156 425.44047619047615) rotate(0 85.28333282470703 12)"><text x="0" y="0" font-family="Virgil, Segoe UI Emoji" font-size="20px" fill="#000000" text-anchor="start" style="white-space: pre;" direction="ltr" dominant-baseline="text-before-edge">Database Server</text></g><g stroke-linecap="round" transform="translate(294.7023809523812 358.5714285714285) rotate(0 107.85714285714289 82.85714285714282)"><path d="M32 0 M32 0 C79.24 0, 126.48 0, 183.71 0 M32 0 C65.17 0, 98.33 0, 183.71 0 M183.71 0 C205.05 0, 215.71 10.67, 215.71 32 M183.71 0 C205.05 0, 215.71 10.67, 215.71 32 M215.71 32 C215.71 61.38, 215.71 90.76, 215.71 133.71 M215.71 32 C215.71 66.26, 215.71 100.52, 215.71 133.71 M215.71 133.71 C215.71 155.05, 205.05 165.71, 183.71 165.71 M215.71 133.71 C215.71 155.05, 205.05 165.71, 183.71 165.71 M183.71 165.71 C134.45 165.71, 85.2 165.71, 32 165.71 M183.71 165.71 C137.95 165.71, 92.18 165.71, 32 165.71 M32 165.71 C10.67 165.71, 0 155.05, 0 133.71 M32 165.71 C10.67 165.71, 0 155.05, 0 133.71 M0 133.71 C0 107.41, 0 81.1, 0 32 M0 133.71 C0 102.76, 0 71.81, 0 32 M0 32 C0 10.67, 10.67 0, 32 0 M0 32 C0 10.67, 10.67 0, 32 0" stroke="#000000" stroke-width="4" fill="none"></path></g><g transform="translate(358.9880952380954 428.5714285714283) rotate(0 46.16666793823242 12)"><text x="0" y="0" font-family="Virgil, Segoe UI Emoji" font-size="20px" fill="#000000" text-anchor="start" style="white-space: pre;" direction="ltr" dominant-baseline="text-before-edge">RabbitMQ</text></g><g stroke-linecap="round" transform="translate(588.988095238095 362.8571428571429) rotate(0 108.57142857142856 79.99999999999996)"><path d="M32 0 M32 0 C87.94 0, 143.88 0, 185.14 0 M32 0 C80.43 0, 128.86 0, 185.14 0 M185.14 0 C206.48 0, 217.14 10.67, 217.14 32 M185.14 0 C206.48 0, 217.14 10.67, 217.14 32 M217.14 32 C217.14 63.85, 217.14 95.7, 217.14 128 M217.14 32 C217.14 52.28, 217.14 72.56, 217.14 128 M217.14 128 C217.14 149.33, 206.48 160, 185.14 160 M217.14 128 C217.14 149.33, 206.48 160, 185.14 160 M185.14 160 C124.7 160, 64.26 160, 32 160 M185.14 160 C150.04 160, 114.94 160, 32 160 M32 160 C10.67 160, 0 149.33, 0 128 M32 160 C10.67 160, 0 149.33, 0 128 M0 128 C0 103.28, 0 78.56, 0 32 M0 128 C0 103.19, 0 78.37, 0 32 M0 32 C0 10.67, 10.67 0, 32 0 M0 32 C0 10.67, 10.67 0, 32 0" stroke="#000000" stroke-width="4" fill="none"></path></g><g transform="translate(620.4166666666667 431.42857142857133) rotate(0 79.4749984741211 12)"><text x="0" y="0" font-family="Virgil, Segoe UI Emoji" font-size="20px" fill="#000000" text-anchor="start" style="white-space: pre;" direction="ltr" dominant-baseline="text-before-edge">Long Poll Server</text></g><g stroke-linecap="round" transform="translate(343.27380952380986 81.4285714285713) rotate(0 40 53.571428571428555)"><path d="M20 0 L64.69 0.31 L72.19 2.81 L77.19 7.81 L78.75 11.25 L80 20 L80 87.14 L78.75 95.89 L77.19 99.33 L72.19 104.33 L68.75 105.89 L60 107.14 L15.31 106.83 L7.81 104.33 L2.81 99.33 L1.25 95.89 L0 87.14 L0.31 15.31 L2.81 7.81 L7.81 2.81 L11.25 1.25 L20 0" stroke="none" stroke-width="0" fill="#fff"></path><path d="M20 0 M20 0 C28.55 0, 37.11 0, 60 0 M20 0 C31.72 0, 43.43 0, 60 0 M60 0 C73.33 0, 80 6.67, 80 20 M60 0 C73.33 0, 80 6.67, 80 20 M80 20 C80 34.79, 80 49.59, 80 87.14 M80 20 C80 45.81, 80 71.63, 80 87.14 M80 87.14 C80 100.48, 73.33 107.14, 60 107.14 M80 87.14 C80 100.48, 73.33 107.14, 60 107.14 M60 107.14 C47.04 107.14, 34.08 107.14, 20 107.14 M60 107.14 C51.38 107.14, 42.76 107.14, 20 107.14 M20 107.14 C6.67 107.14, 0 100.48, 0 87.14 M20 107.14 C6.67 107.14, 0 100.48, 0 87.14 M0 87.14 C0 68.23, 0 49.32, 0 20 M0 87.14 C0 64.46, 0 41.77, 0 20 M0 20 C0 6.67, 6.67 0, 20 0 M0 20 C0 6.67, 6.67 0, 20 0" stroke="#000000" stroke-width="4" fill="none"></path></g><g stroke-linecap="round" transform="translate(357.55952380952385 66.42857142857147) rotate(0 40 53.571428571428555)"><path d="M20 0 M20 0 C31.2 0, 42.39 0, 60 0 M20 0 C28.71 0, 37.42 0, 60 0 M60 0 C73.33 0, 80 6.67, 80 20 M60 0 C73.33 0, 80 6.67, 80 20 M80 20 C80 36.67, 80 53.34, 80 87.14 M80 20 C80 45.61, 80 71.22, 80 87.14 M80 87.14 C80 100.48, 73.33 107.14, 60 107.14 M80 87.14 C80 100.48, 73.33 107.14, 60 107.14 M60 107.14 C46.81 107.14, 33.61 107.14, 20 107.14 M60 107.14 C48.38 107.14, 36.77 107.14, 20 107.14 M20 107.14 C6.67 107.14, 0 100.48, 0 87.14 M20 107.14 C6.67 107.14, 0 100.48, 0 87.14 M0 87.14 C0 71.75, 0 56.36, 0 20 M0 87.14 C0 71.47, 0 55.79, 0 20 M0 20 C0 6.67, 6.67 0, 20 0 M0 20 C0 6.67, 6.67 0, 20 0" stroke="#000000" stroke-width="4" fill="none"></path></g><g stroke-linecap="round" transform="translate(371.8452380952383 55.00000000000003) rotate(0 40 53.571428571428555)"><path d="M20 0 M20 0 C32.49 0, 44.98 0, 60 0 M20 0 C35.61 0, 51.22 0, 60 0 M60 0 C73.33 0, 80 6.67, 80 20 M60 0 C73.33 0, 80 6.67, 80 20 M80 20 C80 33.9, 80 47.8, 80 87.14 M80 20 C80 45.98, 80 71.96, 80 87.14 M80 87.14 C80 100.48, 73.33 107.14, 60 107.14 M80 87.14 C80 100.48, 73.33 107.14, 60 107.14 M60 107.14 C47.64 107.14, 35.29 107.14, 20 107.14 M60 107.14 C49.65 107.14, 39.3 107.14, 20 107.14 M20 107.14 C6.67 107.14, 0 100.48, 0 87.14 M20 107.14 C6.67 107.14, 0 100.48, 0 87.14 M0 87.14 C0 65.8, 0 44.45, 0 20 M0 87.14 C0 65.18, 0 43.22, 0 20 M0 20 C0 6.67, 6.67 0, 20 0 M0 20 C0 6.67, 6.67 0, 20 0" stroke="#000000" stroke-width="4" fill="none"></path></g><g transform="translate(371.8452380952381 10) rotate(0 32.483333587646484 12)"><text x="0" y="0" font-family="Virgil, Segoe UI Emoji" font-size="20px" fill="#000000" text-anchor="start" style="white-space: pre;" direction="ltr" dominant-baseline="text-before-edge">Clients</text></g><g stroke-linecap="round"><g transform="translate(329.57757319925145 198.88116482228622) rotate(0 -112.49019544001999 74.13084616028551)"><path d="M0 0 C-37.5 24.71, -187.48 123.55, -224.98 148.26 M0 0 C-37.5 24.71, -187.48 123.55, -224.98 148.26" stroke="#000000" stroke-width="4" fill="none"></path></g><g transform="translate(329.57757319925145 198.88116482228622) rotate(0 -112.49019544001999 74.13084616028551)"><path d="M-207.09 124.18 C-212.85 131.94, -218.62 139.7, -224.98 148.26 M-207.09 124.18 C-212 130.8, -216.92 137.42, -224.98 148.26" stroke="#000000" stroke-width="4" fill="none"></path></g><g transform="translate(329.57757319925145 198.88116482228622) rotate(0 -112.49019544001999 74.13084616028551)"><path d="M-195.8 141.32 C-205.2 143.56, -214.61 145.79, -224.98 148.26 M-195.8 141.32 C-203.82 143.23, -211.83 145.13, -224.98 148.26" stroke="#000000" stroke-width="4" fill="none"></path></g></g><mask></mask><g stroke-linecap="round"><g transform="translate(696.1511594661042 345.7142857142858) rotate(0 -120.01010354257585 -72.14285714285717)"><path d="M0 0 C-40 -24.05, -200.02 -120.24, -240.02 -144.29 M0 0 C-40 -24.05, -200.02 -120.24, -240.02 -144.29" stroke="#000000" stroke-width="4" fill="none"></path></g><g transform="translate(696.1511594661042 345.7142857142858) rotate(0 -120.01010354257585 -72.14285714285717)"><path d="M-210.57 -138.56 C-217.63 -139.93, -224.7 -141.3, -240.02 -144.29 M-210.57 -138.56 C-219.51 -140.29, -228.45 -142.03, -240.02 -144.29" stroke="#000000" stroke-width="4" fill="none"></path></g><g transform="translate(696.1511594661042 345.7142857142858) rotate(0 -120.01010354257585 -72.14285714285717)"><path d="M-221.15 -120.97 C-225.67 -126.56, -230.2 -132.15, -240.02 -144.29 M-221.15 -120.97 C-226.88 -128.05, -232.61 -135.12, -240.02 -144.29" stroke="#000000" stroke-width="4" fill="none"></path></g></g><mask></mask><g stroke-linecap="round"><g transform="translate(228.9880952380953 446.66446256073164) rotate(0 27.857142857142946 0.492449769166484)"><path d="M0 0 C9.29 0.16, 46.43 0.82, 55.71 0.98 M0 0 C9.29 0.16, 46.43 0.82, 55.71 0.98" stroke="#000000" stroke-width="4" fill="none"></path></g><g transform="translate(228.9880952380953 446.66446256073164) rotate(0 27.857142857142946 0.492449769166484)"><path d="M29.37 10.05 C38.6 6.87, 47.84 3.69, 55.71 0.98 M29.37 10.05 C38.25 6.99, 47.13 3.94, 55.71 0.98" stroke="#000000" stroke-width="4" fill="none"></path></g><g transform="translate(228.9880952380953 446.66446256073164) rotate(0 27.857142857142946 0.492449769166484)"><path d="M29.71 -9.01 C38.82 -5.5, 47.94 -2, 55.71 0.98 M29.71 -9.01 C38.47 -5.64, 47.24 -2.27, 55.71 0.98" stroke="#000000" stroke-width="4" fill="none"></path></g></g><mask></mask><g stroke-linecap="round"><g transform="translate(527.5595238095241 450.0000000000001) rotate(0 27.142857142856997 -0.7142857142857792)"><path d="M0 0 C9.05 -0.24, 45.24 -1.19, 54.29 -1.43 M0 0 C9.05 -0.24, 45.24 -1.19, 54.29 -1.43" stroke="#000000" stroke-width="4" fill="none"></path></g><g transform="translate(527.5595238095241 450.0000000000001) rotate(0 27.142857142856997 -0.7142857142857792)"><path d="M29.02 8.53 C34.45 6.39, 39.87 4.25, 54.29 -1.43 M29.02 8.53 C34.44 6.39, 39.86 4.25, 54.29 -1.43" stroke="#000000" stroke-width="4" fill="none"></path></g><g transform="translate(527.5595238095241 450.0000000000001) rotate(0 27.142857142856997 -0.7142857142857792)"><path d="M28.54 -10.04 C34.06 -8.19, 39.59 -6.34, 54.29 -1.43 M28.54 -10.04 C34.06 -8.19, 39.59 -6.35, 54.29 -1.43" stroke="#000000" stroke-width="4" fill="none"></path></g></g><mask></mask></svg>